<svg xmlns="http://www.w3.org/2000/svg" xmlns:xlink="http://www.w3.org/1999/xlink" version="1.1" id="Layer_1"
    viewBox="0 0 323.789 323.789" xml:space="preserve" fill="#000000">
    <g id="SVGRepo_bgCarrier" stroke-width="0"></g>
    <g id="SVGRepo_tracerCarrier" stroke-linecap="round" stroke-linejoin="round"></g>
    <g id="SVGRepo_iconCarrier">
        <g>
            <g>
                <path style="fill:#61D338;"
                    d="M316.716,64.494c0.004-8.282-6.713-14.999-14.998-14.997h-0.001h0.001h-6.213l9.75-9.751 c5.856-5.856,5.857-15.353-0.002-21.211c0-0.001,0-0.001,0-0.001c-5.859-5.859-15.354-5.859-21.213,0l-9.746,9.746v-6.21 l-0.002-0.001c0-8.285-6.715-14.999-15.001-15c-8.284,0.001-15.001,6.715-15.001,15l0.001,12.966v44.46h30.003l0,0h27.424l0,0 C310.004,79.495,316.72,72.78,316.716,64.494z">
                </path>
                <path style="fill:#00B10E;"
                    d="M316.716,64.494c0.004-8.282-6.713-14.999-14.998-14.997h-0.001h0.001h-6.213l9.75-9.751 c5.856-5.856,5.857-15.353-0.002-21.211c0-0.001,0-0.001,0-0.001l-60.962,60.961h30.003l0,0h27.424l0,0 C310.004,79.495,316.72,72.78,316.716,64.494z">
                </path>
            </g>
            <path style="fill:#FFDE51;"
                d="M285.641,79.497c-1.564-4.767-3.693-9.385-6.384-13.751c-1.49-2.413-3.133-4.756-4.966-6.997 c-1.37-1.675-2.831-3.297-4.393-4.857c-1.562-1.563-3.185-3.025-4.859-4.395c-2.241-1.832-4.584-3.477-6.995-4.964 c-4.371-2.693-8.985-4.819-13.752-6.386c-22.568-7.402-48.41-2.168-66.318,15.743l-49.676,49.675 c0.095,7.304-0.107,14.584-0.612,21.828c-0.562,8.051-1.489,16.054-2.773,23.986c-0.253,1.56-0.521,3.115-0.801,4.67 c-0.089,0.488-0.188,0.973-0.279,1.459c-0.195,1.064-0.392,2.127-0.602,3.188c-0.157,0.778-0.327,1.557-0.487,2.336 c-0.158,0.764-0.313,1.53-0.478,2.29c-0.199,0.919-0.415,1.831-0.624,2.745c-0.139,0.622-0.275,1.242-0.422,1.859 c-0.243,1.039-0.506,2.072-0.764,3.107c-0.119,0.492-0.238,0.984-0.363,1.477c-0.291,1.138-0.596,2.274-0.902,3.408 c-0.104,0.381-0.199,0.767-0.305,1.149c-0.328,1.197-0.673,2.392-1.018,3.584c-0.092,0.318-0.178,0.637-0.271,0.954 c-0.377,1.28-0.769,2.562-1.165,3.836c-0.068,0.225-0.135,0.447-0.203,0.67c-0.419,1.342-0.854,2.678-1.295,4.013 c-0.053,0.155-0.102,0.315-0.154,0.473c-0.455,1.366-0.923,2.729-1.4,4.09c-0.043,0.122-0.082,0.248-0.127,0.369 c-0.505,1.435-1.025,2.863-1.554,4.29c-0.019,0.044-0.034,0.089-0.052,0.137c-0.542,1.45-1.094,2.897-1.661,4.339 c-0.008,0.021-0.017,0.042-0.024,0.063c-0.572,1.458-1.161,2.91-1.76,4.357c-0.002,0.007-0.004,0.012-0.006,0.018 c-1.203,2.906-2.459,5.793-3.766,8.658l-0.002,0.002c-0.685,1.504-1.385,3.004-2.101,4.498c-0.013,0.025-0.023,0.054-0.04,0.078 c0,0.003,0,0.005,0,0.007c22.832-10.951,47.12-18.569,72.115-22.621c7.934-1.287,15.938-2.214,23.989-2.776 c7.244-0.505,14.524-0.707,21.827-0.615l49.679-49.676C287.806,127.903,293.045,102.063,285.641,79.497z">
            </path>
            <path style="fill:#FFD400;"
                d="M274.291,58.749c-1.37-1.675-2.831-3.297-4.393-4.857l-167.61,167.605c0,0.003,0,0.005,0,0.007 c22.832-10.951,47.12-18.569,72.115-22.621c7.934-1.287,15.938-2.214,23.989-2.776c7.244-0.505,14.524-0.707,21.827-0.615 l49.679-49.676c17.907-17.912,23.146-43.752,15.742-66.318c-1.564-4.767-3.693-9.385-6.384-13.751 C277.767,63.333,276.124,60.99,274.291,58.749z">
            </path>
            <path style="fill:#61D338;"
                d="M319.396,181.171c5.857-5.859,5.859-15.355-0.001-21.215c-5.855-5.856-15.354-5.858-21.212,0 l-31.846,31.846c-13.018-2.103-26.063-3.216-39.046-3.381c-7.304-0.092-14.583,0.109-21.827,0.615 c-8.052,0.562-16.056,1.488-23.99,2.775c-24.995,4.053-49.283,11.67-72.114,22.621c0-0.002,0-0.004,0.001-0.006 c0.016-0.025,0.027-0.054,0.039-0.079c0.033-0.073,0.068-0.145,0.102-0.217c0.678-1.423,1.345-2.85,2-4.281l0.002-0.002 c1.306-2.865,2.561-5.752,3.764-8.657c0.003-0.007,0.004-0.012,0.007-0.018c0.599-1.448,1.188-2.9,1.759-4.358 c0.008-0.021,0.017-0.042,0.025-0.063c0.567-1.441,1.119-2.889,1.66-4.338c0.018-0.049,0.035-0.094,0.053-0.139 c0.527-1.426,1.048-2.854,1.553-4.289c0.045-0.121,0.085-0.247,0.128-0.369c0.478-1.36,0.946-2.723,1.401-4.09 c0.051-0.157,0.1-0.316,0.152-0.473c0.442-1.335,0.876-2.671,1.296-4.013c0.067-0.222,0.136-0.445,0.203-0.669 c0.397-1.275,0.787-2.557,1.165-3.837c0.093-0.318,0.18-0.636,0.27-0.954c0.346-1.191,0.69-2.387,1.018-3.584 c0.106-0.383,0.201-0.769,0.307-1.149c0.307-1.134,0.609-2.271,0.901-3.408c0.124-0.492,0.243-0.984,0.364-1.476 c0.256-1.036,0.52-2.069,0.763-3.108c0.146-0.617,0.282-1.237,0.422-1.858c0.208-0.914,0.425-1.827,0.624-2.746 c0.166-0.76,0.318-1.526,0.478-2.289c0.162-0.779,0.33-1.559,0.487-2.337c0.209-1.061,0.405-2.123,0.602-3.188 c0.093-0.485,0.19-0.97,0.279-1.458c0.279-1.555,0.548-3.111,0.8-4.671c1.284-7.933,2.213-15.937,2.774-23.986 c0.505-7.243,0.707-14.524,0.611-21.827c-0.165-12.98-1.277-26.026-3.379-39.045l31.843-31.844c5.858-5.857,5.858-15.354,0-21.213 c-5.856-5.857-15.356-5.858-21.213,0l-35.482,35.482c-1.384,0.981-2.579,2.183-3.548,3.548L36.553,110.46 c-48.711,48.711-48.735,127.953-0.079,176.696c0.029,0.025,0.054,0.054,0.079,0.079c48.737,48.737,128.038,48.738,176.776,0 l68.71-68.71l0.019-0.017l1.981-1.983L319.396,181.171z">
            </path>
            <path style="fill:#EFC930;"
                d="M111.503,209.848c1.306-2.865,2.561-5.752,3.764-8.657 C114.063,204.096,112.809,206.982,111.503,209.848z">
            </path>
            <path style="fill:#00B10E;"
                d="M205.464,189.036c-8.052,0.562-16.056,1.488-23.99,2.775c-24.995,4.053-49.283,11.67-72.114,22.621 c0-0.002,0-0.004,0.001-0.006c0.016-0.025,0.027-0.054,0.039-0.079c0.033-0.073,0.068-0.145,0.102-0.217l-73.027,73.025 c0.029,0.025,0.054,0.054,0.079,0.079c48.737,48.737,128.038,48.738,176.776,0l68.71-68.71l0.019-0.017l1.981-1.983l35.356-35.354 c5.857-5.859,5.859-15.355-0.001-21.215c-5.855-5.856-15.354-5.858-21.212,0l-31.846,31.846 c-13.018-2.103-26.063-3.216-39.046-3.381C219.987,188.329,212.708,188.53,205.464,189.036z">
            </path>
        </g>
    </g>
</svg>